<svg xmlns="http://www.w3.org/2000/svg" xmlns:ns1="http://sozi.baierouge.fr" xmlns:svg="http://www.w3.org/2000/svg" xmlns:xlink="http://www.w3.org/1999/xlink" id="svg3473" version="1.1" viewBox="0 0 190.57 181.28"><g id="layer1" transform="translate(-91.886 -211.27)"><path id="path3003" d="m204.93 363.51s27.826 6.7988 25.586 18.94c-2.1045 11.409-18.725 12.749-27.728 4.8988-6.1987-5.4054 2.1415-23.839 2.1415-23.839z" style="fill:#fc0"/><path id="path3001" style="fill:#fc0" d="m168.54 363.75s-26.32 6.7988-24.202 18.94c1.9907 11.409 17.712 12.749 26.228 4.8988 5.8634-5.4054-2.0256-23.839-2.0256-23.839z"/><path id="path2985" style="fill:#006680" d="m186.7 211.27c-48.511 0.31829-76.343 91.915-59.771 137.51 6.6471 18.288 33.704 24.591 60.677 24.642 26.972 0.0518 49.119-3.5955 56.424-24.642 15.414-44.41-10.321-137.82-57.33-137.51z"/><path id="path2987" style="fill:#fff" d="m187.39 221.74c-38.994 0.29726-57.673 87.886-48.153 125.13 2.9956 11.722 29.078 23.993 47.476 24.354 18.398 0.36129 40.203-6.1371 45.585-24.354 11.373-38.496-4.2053-125.44-44.908-125.13z"/><path id="path2993" style="fill:#fc0" d="m167.97 269.54 43.217-3.5305s0.61454 22.976-7.9232 26.126c-13.106 4.8351-35.294-22.595-35.294-22.595z"/><path id="path2995" style="fill:#000" d="m344.87 341.13c0 9.6614-7.8321 17.493-17.493 17.493-9.6614 0-17.493-7.8321-17.493-17.493 0-9.6614 7.8321-17.493 17.493-17.493 9.6614 0 17.493 7.8321 17.493 17.493z" transform="matrix(.24426 0 0 .24426 96.67 164.98)"/><path id="path2997" style="fill:#000" d="m344.87 341.13c0 9.6614-7.8321 17.493-17.493 17.493-9.6614 0-17.493-7.8321-17.493-17.493 0-9.6614 7.8321-17.493 17.493-17.493 9.6614 0 17.493 7.8321 17.493 17.493z" transform="matrix(.24426 0 0 .24426 96.67 164.98)"/><path id="path2999" style="fill:#000" d="m344.87 341.13c0 9.6614-7.8321 17.493-17.493 17.493-9.6614 0-17.493-7.8321-17.493-17.493 0-9.6614 7.8321-17.493 17.493-17.493 9.6614 0 17.493 7.8321 17.493 17.493z" transform="matrix(.24426 0 0 .24426 116.7 164.98)"/><path id="path3005" style="fill:#006680" d="m138.24 259.92s-52.645 74.56-45.724 81.748c12.266 12.738 40.181-34.639 40.181-34.639z"/><path id="path3007" d="m236.1 265.46s52.645 74.56 45.724 81.748c-12.266 12.738-40.181-34.639-40.181-34.639z" style="fill:#006680"/></g><metadata/></svg>