<svg xmlns="http://www.w3.org/2000/svg" xmlns:ns1="http://sozi.baierouge.fr" xmlns:svg="http://www.w3.org/2000/svg" xmlns:xlink="http://www.w3.org/1999/xlink" id="svg2" version="1.1" viewBox="0 0 220.9 253.18"><g id="layer1" transform="translate(242.86 389.16)"><path id="path3041" style="fill:#ff8080" d="m-47.041-264.07s-7.43-35.453 2.5269-48.01c8.4464-10.652 8.4912 3.8626 14.379-8.3906 2.8624-5.9567 5.3651-6.2321 6.4452-5.4745 3.3808 2.3714 1.0657 2.2639-0.67072 10.724-3.192 15.551-4.1443 0.0782-13.743 12.723-11.782 15.521-3.884 72.541-7.0426 54.853s-1.8951-16.425-1.8951-16.425z"/><path id="path3037" style="fill:#ffd5d5" d="m-52.315-210.61s4.8611 27.646-0.28183 31.009c-6.2713 4.1006-20.205-10.9-20.205-10.9z"/><path id="path3039" d="m-76.9-194.76c23.14 25.029 33.462 24.725 25.072-13.245 2.3336 25.065-1.7587 37.543-25.072 13.245z" style="fill:#ff8080"/><path id="path3035" d="m-99.38-178.31s-2.7849 37.247-10.519 39.9c-9.431 3.2346-22.489-20.675-22.489-20.675z" style="fill:#ffd5d5"/><path id="path3033" style="fill:#ffd5d5" d="m-207.47-185.93s2.7849 37.247 10.519 39.9c9.431 3.2346 22.489-20.675 22.489-20.675z"/><path id="path3023" d="m-42.44-343.6-28.694-21.471 2.9471 34.633-45.999-25.503 42.86-33.221z" style="fill:#ff8080"/><path id="path3043" d="m-47.041-264.07s-6.3418-32.551 3.615-45.108c8.4464-10.652 8.5935 2.9756 14.551-9.8314 2.7873-5.9922 3.1103-6.2342 4.4871-5.5899 1.7036 0.7972-0.71892 3.3885-1.5062 8.1917-1.3409 8.1811-3.6696 6.745-7.4561 7.1507-1.5725 0.16848-3.7499 0.14639-6.5664 3.8569-11.782 15.521-2.0704 75.443-5.229 57.755s-1.8951-16.425-1.8951-16.425z" style="fill:#ffd5d5"/><path id="path2989" style="fill:#ff8080" d="m728.57 226.65c0 268.25-217.46 485.71-485.71 485.71s-485.71-217.46-485.71-485.71 217.46-485.71 485.71-485.71 485.71 217.46 485.71 485.71z" transform="matrix(.20993 0 0 .20993 -191.87 -307.46)"/><path id="path3025" d="m-83.831-375.8 10.35 7.7698 1.3423 33.533c-12.449-10.672-24.898-16.956-37.348-20.889z" style="fill:#ffd5d5"/><path id="path2993" style="fill:#ffd5d5" d="m728.57 226.65c0 268.25-217.46 485.71-485.71 485.71s-485.71-217.46-485.71-485.71 217.46-485.71 485.71-485.71 485.71 217.46 485.71 485.71z" transform="matrix(.19820 0 0 .19820 -189.87 -306.06)"/><path id="path3015" style="fill:#ff8080" d="m-240.56-343.6 28.694-24.01-2.9471 37.172 45.999-25.503-42.86-33.221z"/><path id="path3005" style="fill:#000" d="m-530.7 155.29c0 47.462-31.051 85.938-69.353 85.938-38.303 0-69.353-38.476-69.353-85.938s31.051-85.938 69.353-85.938c38.303 0 69.353 38.476 69.353 85.938z" transform="matrix(.20993 0 0 .20993 -23.493 -328.35)"/><path id="path2999" style="fill:#000" d="m-530.7 155.29c0 47.462-31.051 85.938-69.353 85.938-38.303 0-69.353-38.476-69.353-85.938s31.051-85.938 69.353-85.938c38.303 0 69.353 38.476 69.353 85.938z" transform="matrix(.20993 0 0 .20993 -79.198 -330.88)"/><path id="path3013" style="fill:#f55" d="m-191.87-213.14 33.55 0.63302s-16.667 19.303-25.321 18.99c-8.3977-0.30357-8.2292-19.623-8.2292-19.623z"/><path id="path2995" style="fill:#ff8080" d="m728.57 226.65c0 268.25-217.46 485.71-485.71 485.71s-485.71-217.46-485.71-485.71 217.46-485.71 485.71-485.71 485.71 217.46 485.71 485.71z" transform="matrix(.091332 0 0 .093939 -202.32 -271.68)"/><path id="path3007" style="fill:#fff" d="m-530.7 155.29c0 47.462-31.051 85.938-69.353 85.938-38.303 0-69.353-38.476-69.353-85.938s31.051-85.938 69.353-85.938c38.303 0 69.353 38.476 69.353 85.938z" transform="matrix(.088391 0 0 .088391 -101.68 -315.08)"/><path id="path2997" style="fill:#ffd5d5" d="m728.57 226.65c0 268.25-217.46 485.71-485.71 485.71s-485.71-217.46-485.71-485.71 217.46-485.71 485.71-485.71 485.71 217.46 485.71 485.71z" transform="matrix(.079712 0 0 .086083 -199.86 -270.46)"/><path id="path3003" style="fill:#fff" d="m-530.7 155.29c0 47.462-31.051 85.938-69.353 85.938-38.303 0-69.353-38.476-69.353-85.938s31.051-85.938 69.353-85.938c38.303 0 69.353 38.476 69.353 85.938z" transform="matrix(.088391 0 0 .088391 -157.39 -317.61)"/><path id="path3009" style="fill:#f55" d="m-316.61 221.63c0 40.801-19.575 73.876-43.723 73.876-24.147 0-43.723-33.076-43.723-73.876 0-40.801 19.575-73.876 43.723-73.876 24.147 0 43.723 33.076 43.723 73.876z" transform="matrix(.13030 0 0 .22278 -149.35 -302.4)"/><path id="path3011" style="fill:#f55" d="m-316.61 221.63c0 40.801-19.575 73.876-43.723 73.876-24.147 0-43.723-33.076-43.723-73.876 0-40.801 19.575-73.876 43.723-73.876 24.147 0 43.723 33.076 43.723 73.876z" transform="matrix(.13030 0 0 .22278 -127.1 -302.4)"/><path id="path3019" style="fill:#ffd5d5" d="m-208.97-384.51-1.899 50.008c12.449-10.672 24.898-16.956 37.348-20.889z"/><path id="path3021" style="fill:#ffd5d5" d="m-211.68-385.87-20.079 33.009 19.623-17.724z"/><path id="path3027" d="m-71.327-385.51 20.079 32.646-30.505-25.342z" style="fill:#ffd5d5"/><path id="path3029" style="fill:#ff8080" d="m-136.28-165.92c21.647 39.858 35.058 42.846 36.673-8.8703-5.1992 33.09-14.564 47.843-36.673 8.8703z"/><path id="path3031" d="m-170.14-174.31c-21.647 39.858-35.058 42.846-36.673-8.8703 5.1992 33.09 14.564 47.843 36.673 8.8703z" style="fill:#ff8080"/></g><metadata/></svg>